<mxfile host="app.diagrams.net" modified="2024-05-14T23:10:56.909Z" agent="Mozilla/5.0 (Windows NT 10.0; Win64; x64) AppleWebKit/537.36 (KHTML, like Gecko) Chrome/124.0.0.0 Safari/537.36" etag="l-XQWrTi-TIBQsvMAhrv" version="24.4.0" type="device">
  <diagram name="PÃ¡gina-1" id="UCXf94rh8p3pWGPRJXDu">
    <mxGraphModel dx="872" dy="1637" grid="1" gridSize="10" guides="1" tooltips="1" connect="1" arrows="1" fold="1" page="1" pageScale="1" pageWidth="827" pageHeight="1169" math="0" shadow="0">
      <root>
        <mxCell id="0" />
        <mxCell id="1" parent="0" />
        <mxCell id="8oug8kp0YFwJiyB8ARfh-29" value="&lt;p style=&quot;margin:0px;margin-top:4px;text-align:center;&quot;&gt;&lt;i&gt;&amp;lt;&amp;lt;Interface&amp;gt;&amp;gt;&lt;/i&gt;&lt;br&gt;&lt;b&gt;ControleReproducao&lt;/b&gt;&lt;/p&gt;&lt;hr size=&quot;1&quot; style=&quot;border-style:solid;&quot;&gt;&lt;p style=&quot;margin:0px;margin-left:4px;&quot;&gt;&amp;nbsp; &amp;nbsp; + tocarMusica(): void&lt;/p&gt;&lt;p style=&quot;margin:0px;margin-left:4px;&quot;&gt;&amp;nbsp; &amp;nbsp; + pausarMusica(): void&lt;/p&gt;&lt;p style=&quot;margin:0px;margin-left:4px;&quot;&gt;&amp;nbsp; &amp;nbsp; + selecionarMusica():&amp;nbsp;&lt;span style=&quot;background-color: initial;&quot;&gt;void&lt;/span&gt;&lt;/p&gt;" style="verticalAlign=top;align=left;overflow=fill;html=1;whiteSpace=wrap;" vertex="1" parent="1">
          <mxGeometry x="280" y="280" width="190" height="90" as="geometry" />
        </mxCell>
        <mxCell id="8oug8kp0YFwJiyB8ARfh-30" value="&lt;p style=&quot;margin:0px;margin-top:4px;text-align:center;&quot;&gt;&lt;i&gt;&amp;lt;&amp;lt;Interface&amp;gt;&amp;gt;&lt;/i&gt;&lt;br&gt;&lt;b&gt;GerenciamentoChamadas&lt;/b&gt;&lt;/p&gt;&lt;hr size=&quot;1&quot; style=&quot;border-style:solid;&quot;&gt;&lt;p style=&quot;margin:0px;margin-left:4px;&quot;&gt;&amp;nbsp; &amp;nbsp; + ligar(): void&lt;/p&gt;&lt;p style=&quot;margin:0px;margin-left:4px;&quot;&gt;&amp;nbsp; &amp;nbsp; + atenderChamada(): void&lt;/p&gt;&lt;p style=&quot;margin:0px;margin-left:4px;&quot;&gt;&amp;nbsp; &amp;nbsp; + iniciarCorreioVoz():&amp;nbsp;&lt;span style=&quot;background-color: initial;&quot;&gt;void&lt;/span&gt;&lt;/p&gt;" style="verticalAlign=top;align=left;overflow=fill;html=1;whiteSpace=wrap;" vertex="1" parent="1">
          <mxGeometry x="45" y="280" width="190" height="90" as="geometry" />
        </mxCell>
        <mxCell id="8oug8kp0YFwJiyB8ARfh-31" value="&lt;p style=&quot;margin:0px;margin-top:4px;text-align:center;&quot;&gt;&lt;i&gt;&amp;lt;&amp;lt;Interface&amp;gt;&amp;gt;&lt;/i&gt;&lt;br&gt;&lt;b&gt;GerenciamentoNavegacao&lt;/b&gt;&lt;/p&gt;&lt;hr size=&quot;1&quot; style=&quot;border-style:solid;&quot;&gt;&lt;p style=&quot;margin:0px;margin-left:4px;&quot;&gt;&amp;nbsp; &amp;nbsp; + exibirPagina(): void&lt;/p&gt;&lt;p style=&quot;margin:0px;margin-left:4px;&quot;&gt;&amp;nbsp; &amp;nbsp; + adicionarNovaAba(): void&lt;/p&gt;&lt;p style=&quot;margin:0px;margin-left:4px;&quot;&gt;&amp;nbsp; &amp;nbsp; + atualizarPagina():&amp;nbsp;&lt;span style=&quot;background-color: initial;&quot;&gt;void&lt;/span&gt;&lt;/p&gt;" style="verticalAlign=top;align=left;overflow=fill;html=1;whiteSpace=wrap;" vertex="1" parent="1">
          <mxGeometry x="520" y="280" width="190" height="90" as="geometry" />
        </mxCell>
        <mxCell id="8oug8kp0YFwJiyB8ARfh-67" style="edgeStyle=orthogonalEdgeStyle;rounded=0;orthogonalLoop=1;jettySize=auto;html=1;exitX=0.75;exitY=0;exitDx=0;exitDy=0;" edge="1" parent="1" source="8oug8kp0YFwJiyB8ARfh-40" target="8oug8kp0YFwJiyB8ARfh-31">
          <mxGeometry relative="1" as="geometry" />
        </mxCell>
        <mxCell id="8oug8kp0YFwJiyB8ARfh-40" value="NavegadorInternet" style="swimlane;fontStyle=1;align=center;verticalAlign=top;childLayout=stackLayout;horizontal=1;startSize=26;horizontalStack=0;resizeParent=1;resizeParentMax=0;resizeLast=0;collapsible=1;marginBottom=0;whiteSpace=wrap;html=1;" vertex="1" parent="1">
          <mxGeometry x="535" y="440" width="160" height="34" as="geometry" />
        </mxCell>
        <mxCell id="8oug8kp0YFwJiyB8ARfh-42" value="" style="line;strokeWidth=1;fillColor=none;align=left;verticalAlign=middle;spacingTop=-1;spacingLeft=3;spacingRight=3;rotatable=0;labelPosition=right;points=[];portConstraint=eastwest;strokeColor=inherit;" vertex="1" parent="8oug8kp0YFwJiyB8ARfh-40">
          <mxGeometry y="26" width="160" height="8" as="geometry" />
        </mxCell>
        <mxCell id="8oug8kp0YFwJiyB8ARfh-65" style="edgeStyle=orthogonalEdgeStyle;rounded=0;orthogonalLoop=1;jettySize=auto;html=1;exitX=0.75;exitY=0;exitDx=0;exitDy=0;" edge="1" parent="1" source="8oug8kp0YFwJiyB8ARfh-44" target="8oug8kp0YFwJiyB8ARfh-29">
          <mxGeometry relative="1" as="geometry" />
        </mxCell>
        <mxCell id="8oug8kp0YFwJiyB8ARfh-44" value="ReprodutorMusical" style="swimlane;fontStyle=1;align=center;verticalAlign=top;childLayout=stackLayout;horizontal=1;startSize=26;horizontalStack=0;resizeParent=1;resizeParentMax=0;resizeLast=0;collapsible=1;marginBottom=0;whiteSpace=wrap;html=1;" vertex="1" parent="1">
          <mxGeometry x="290" y="440" width="160" height="34" as="geometry" />
        </mxCell>
        <mxCell id="8oug8kp0YFwJiyB8ARfh-46" value="" style="line;strokeWidth=1;fillColor=none;align=left;verticalAlign=middle;spacingTop=-1;spacingLeft=3;spacingRight=3;rotatable=0;labelPosition=right;points=[];portConstraint=eastwest;strokeColor=inherit;" vertex="1" parent="8oug8kp0YFwJiyB8ARfh-44">
          <mxGeometry y="26" width="160" height="8" as="geometry" />
        </mxCell>
        <mxCell id="8oug8kp0YFwJiyB8ARfh-48" value="AparelhoTelefonico" style="swimlane;fontStyle=1;align=center;verticalAlign=top;childLayout=stackLayout;horizontal=1;startSize=26;horizontalStack=0;resizeParent=1;resizeParentMax=0;resizeLast=0;collapsible=1;marginBottom=0;whiteSpace=wrap;html=1;" vertex="1" parent="1">
          <mxGeometry x="60" y="440" width="160" height="34" as="geometry" />
        </mxCell>
        <mxCell id="8oug8kp0YFwJiyB8ARfh-50" value="" style="line;strokeWidth=1;fillColor=none;align=left;verticalAlign=middle;spacingTop=-1;spacingLeft=3;spacingRight=3;rotatable=0;labelPosition=right;points=[];portConstraint=eastwest;strokeColor=inherit;" vertex="1" parent="8oug8kp0YFwJiyB8ARfh-48">
          <mxGeometry y="26" width="160" height="8" as="geometry" />
        </mxCell>
        <mxCell id="8oug8kp0YFwJiyB8ARfh-52" value="iPhone" style="swimlane;fontStyle=1;align=center;verticalAlign=top;childLayout=stackLayout;horizontal=1;startSize=20;horizontalStack=0;resizeParent=1;resizeParentMax=0;resizeLast=0;collapsible=1;marginBottom=0;whiteSpace=wrap;html=1;" vertex="1" parent="1">
          <mxGeometry x="220" y="-10" width="300" height="220" as="geometry" />
        </mxCell>
        <mxCell id="8oug8kp0YFwJiyB8ARfh-53" value="- aparelhoTelefonico: AparelhoTelefonico&lt;div&gt;- reprodutorMusical: ReprodutorMusical&lt;div&gt;&lt;div&gt;- navegadorInternet: NavegadorInternet&lt;/div&gt;&lt;/div&gt;&lt;/div&gt;&lt;div&gt;&lt;br&gt;&lt;/div&gt;" style="text;strokeColor=none;fillColor=none;align=left;verticalAlign=top;spacingLeft=4;spacingRight=4;overflow=hidden;rotatable=0;points=[[0,0.5],[1,0.5]];portConstraint=eastwest;whiteSpace=wrap;html=1;" vertex="1" parent="8oug8kp0YFwJiyB8ARfh-52">
          <mxGeometry y="20" width="300" height="50" as="geometry" />
        </mxCell>
        <mxCell id="8oug8kp0YFwJiyB8ARfh-54" value="" style="line;strokeWidth=1;fillColor=none;align=left;verticalAlign=middle;spacingTop=-1;spacingLeft=3;spacingRight=3;rotatable=0;labelPosition=right;points=[];portConstraint=eastwest;strokeColor=inherit;" vertex="1" parent="8oug8kp0YFwJiyB8ARfh-52">
          <mxGeometry y="70" width="300" height="8" as="geometry" />
        </mxCell>
        <mxCell id="8oug8kp0YFwJiyB8ARfh-55" value="&lt;div&gt;&amp;nbsp; + tocarMusica(): void&lt;/div&gt;&lt;div&gt;&amp;nbsp; + pausarMusica(): void&lt;/div&gt;&lt;div&gt;&amp;nbsp; + selecionarMusica(String nomeMusica): void&lt;/div&gt;&lt;div&gt;&amp;nbsp; + ligar(String numeroTelefone): void&lt;/div&gt;&lt;div&gt;&amp;nbsp; + atenderChamada(): void&lt;/div&gt;&lt;div&gt;&amp;nbsp; + iniciarCorreioVoz(): void&lt;/div&gt;&lt;div&gt;&amp;nbsp; + exibirPagina(String url): void&lt;/div&gt;&lt;div&gt;&amp;nbsp; + adicionarNovaAba(): void&lt;/div&gt;&lt;div&gt;&amp;nbsp; + atualizarPagina(): void&lt;/div&gt;" style="text;strokeColor=none;fillColor=none;align=left;verticalAlign=top;spacingLeft=4;spacingRight=4;overflow=hidden;rotatable=0;points=[[0,0.5],[1,0.5]];portConstraint=eastwest;whiteSpace=wrap;html=1;" vertex="1" parent="8oug8kp0YFwJiyB8ARfh-52">
          <mxGeometry y="78" width="300" height="142" as="geometry" />
        </mxCell>
        <mxCell id="8oug8kp0YFwJiyB8ARfh-61" style="edgeStyle=orthogonalEdgeStyle;rounded=0;orthogonalLoop=1;jettySize=auto;html=1;entryX=0.5;entryY=0;entryDx=0;entryDy=0;exitX=0.006;exitY=0.15;exitDx=0;exitDy=0;exitPerimeter=0;" edge="1" parent="1" source="8oug8kp0YFwJiyB8ARfh-52" target="8oug8kp0YFwJiyB8ARfh-30">
          <mxGeometry relative="1" as="geometry">
            <mxPoint x="300" y="150" as="sourcePoint" />
          </mxGeometry>
        </mxCell>
        <mxCell id="8oug8kp0YFwJiyB8ARfh-63" style="edgeStyle=orthogonalEdgeStyle;rounded=0;orthogonalLoop=1;jettySize=auto;html=1;exitX=0.877;exitY=0.993;exitDx=0;exitDy=0;exitPerimeter=0;" edge="1" parent="1" source="8oug8kp0YFwJiyB8ARfh-55" target="8oug8kp0YFwJiyB8ARfh-31">
          <mxGeometry relative="1" as="geometry">
            <mxPoint x="580" y="160" as="sourcePoint" />
          </mxGeometry>
        </mxCell>
        <mxCell id="8oug8kp0YFwJiyB8ARfh-64" style="edgeStyle=orthogonalEdgeStyle;rounded=0;orthogonalLoop=1;jettySize=auto;html=1;entryX=0.5;entryY=0;entryDx=0;entryDy=0;exitX=0.493;exitY=1;exitDx=0;exitDy=0;exitPerimeter=0;" edge="1" parent="1" source="8oug8kp0YFwJiyB8ARfh-55" target="8oug8kp0YFwJiyB8ARfh-29">
          <mxGeometry relative="1" as="geometry">
            <mxPoint x="380" y="190" as="sourcePoint" />
          </mxGeometry>
        </mxCell>
        <mxCell id="8oug8kp0YFwJiyB8ARfh-66" style="edgeStyle=orthogonalEdgeStyle;rounded=0;orthogonalLoop=1;jettySize=auto;html=1;exitX=0.75;exitY=0;exitDx=0;exitDy=0;entryX=0.695;entryY=1.022;entryDx=0;entryDy=0;entryPerimeter=0;" edge="1" parent="1" source="8oug8kp0YFwJiyB8ARfh-48" target="8oug8kp0YFwJiyB8ARfh-30">
          <mxGeometry relative="1" as="geometry" />
        </mxCell>
      </root>
    </mxGraphModel>
  </diagram>
</mxfile>
